<svg width="283" height="204" viewBox="0 0 283 204" fill="none" xmlns="http://www.w3.org/2000/svg">
<path d="M257.267 140.833C254.499 161.929 235.309 178.575 213.592 178.575C212.507 178.575 211.983 178.575 210.898 178.508C188.724 176.839 171.323 157.261 171.323 134.788C171.323 132.304 170.77 129.82 170.792 127.307C170.792 124.314 170.545 121.284 170.545 118.254C170.604 109.164 170.092 100.079 169.012 91.053C166.824 74.8835 158.705 60.104 146.231 49.585C133.614 38.8259 117.575 32.9163 100.993 32.917C97.3206 32.918 93.6539 33.2031 90.0255 33.7698C61.3054 38.2585 39.251 59.2432 33.8421 87.9932C33.3783 90.462 33.1613 93.7163 32.9668 95.2125H57.0337C57.2207 94.4644 57.4601 92.9158 57.7818 91.6365C58.1035 90.3573 58.4177 89.2725 58.8067 88.0456C59.0012 87.4321 59.2107 86.9085 59.4351 86.31C65.42 70.1208 80.3 59.1309 98.5316 58.2108C99.2797 58.1659 100.028 58.2631 100.776 58.2631C106.491 58.26 112.15 59.3903 117.425 61.5888C122.7 63.7872 127.487 67.0101 131.509 71.0709C139.806 79.4506 144.437 90.7816 144.384 102.574L144.219 105.073C144.219 108.447 144.084 111.843 144.084 115.262C144.084 125.504 144.309 135.858 145.648 145.845C149.635 175.657 175.131 200.383 204.966 203.36C207.529 203.62 210.103 203.75 212.679 203.749C242.723 203.749 268.541 185.675 278.468 158.054C280.549 152.248 281.842 146.189 282.314 140.04H257.349C257.349 140.04 257.289 140.646 257.267 140.833Z" fill="#FC473D"/>
<path d="M100.928 0.0448869C100.928 0.0448869 98.8186 0 98.6166 0C97.9358 0 97.2849 0.0822927 96.6116 0.119698H96.0805C95.2426 0.164585 94.4196 0.224435 93.5892 0.284284H93.477C68.477 2.19989 45.0745 13.3147 27.7925 31.4807C10.339 49.8245 0.591011 76.3078 0 101.519C0 101.183 0 101.931 0 101.519C0 155.922 42.6426 200.42 96.5069 202.634V178.553C56.8568 176.017 24.6055 142.456 24.4334 101.811C24.3723 90.0173 27.0213 78.3672 32.176 67.7595C37.3307 57.1517 44.8533 47.8699 54.1636 40.6301C67.5339 30.3473 83.9414 24.7974 100.809 24.8524H101.138C111.276 24.8708 121.31 26.8988 130.659 30.8192C140.009 34.7395 148.489 40.4745 155.608 47.6923C168.466 60.3888 176.459 77.196 178.194 95.1827H202.477C200.906 69.9338 190.455 47.7298 172.643 29.9845C163.244 20.5252 152.072 13.012 139.766 7.87462C127.461 2.73727 114.263 0.0766156 100.928 0.0448869Z" fill="#86C9FD"/>
<path d="M36.6566 129.275C34.3474 127.544 33.1155 124.891 32.9609 121.315C32.9609 120.612 32.916 119.475 32.916 117.889C32.916 116.303 32.916 115.113 32.9609 114.387C33.1105 110.909 34.3748 108.283 36.7015 106.502C39.0281 104.722 42.1552 103.839 45.9631 103.839C48.1569 103.816 50.3382 104.17 52.4119 104.886C54.2758 105.527 55.929 106.665 57.1924 108.178C58.4669 109.772 59.1419 111.763 59.1 113.804C59.1016 113.917 59.0797 114.029 59.036 114.133C58.9922 114.238 58.9274 114.332 58.8457 114.41C58.7664 114.489 58.6719 114.552 58.5678 114.595C58.4637 114.637 58.3521 114.658 58.2397 114.657H50.3022C49.9799 114.699 49.6529 114.63 49.3745 114.462C49.1224 114.215 48.9415 113.905 48.8509 113.564C48.6519 112.917 48.2572 112.347 47.7212 111.934C47.1831 111.601 46.5578 111.437 45.9257 111.462C45.5433 111.442 45.1607 111.498 44.7999 111.626C44.4391 111.755 44.1073 111.953 43.8235 112.21C43.2714 112.895 43.0035 113.765 43.0754 114.642C43.0754 115.345 43.038 116.415 43.038 117.874C43.038 119.332 43.038 120.425 43.0754 121.18C43.0035 122.057 43.2714 122.927 43.8235 123.612C44.1073 123.869 44.4391 124.067 44.7999 124.196C45.1607 124.324 45.5433 124.38 45.9257 124.36C46.5819 124.405 47.2335 124.22 47.7676 123.836C48.3018 123.453 48.685 122.894 48.8509 122.258C48.9232 121.92 49.0922 121.611 49.3371 121.367C49.6189 121.186 49.9535 121.104 50.2873 121.135H58.2397C58.3521 121.134 58.4637 121.155 58.5678 121.197C58.6719 121.24 58.7664 121.303 58.8457 121.382C58.9274 121.46 58.9922 121.554 59.036 121.659C59.0797 121.763 59.1016 121.875 59.1 121.988C59.1462 124.027 58.4765 126.018 57.2073 127.614C55.9456 129.127 54.2917 130.263 52.4269 130.898C50.3545 131.62 48.1725 131.977 45.9781 131.953C42.063 131.893 38.9558 131 36.6566 129.275Z" fill="white"/>
<path d="M59.8473 131.219C59.7659 131.141 59.7013 131.047 59.6576 130.942C59.6138 130.838 59.5918 130.726 59.5929 130.613C59.5912 130.521 59.6064 130.43 59.6378 130.344L68.3234 105.484C68.4343 105.138 68.6358 104.828 68.9069 104.586C69.2314 104.311 69.6494 104.172 70.074 104.197H78.5501C78.9747 104.172 79.3927 104.311 79.7172 104.586C79.9884 104.828 80.1898 105.138 80.3007 105.484L88.9789 130.314C88.9952 130.403 88.9952 130.494 88.9789 130.583C88.9798 130.696 88.9585 130.808 88.9161 130.912C88.8737 131.016 88.811 131.111 88.7317 131.191C88.6524 131.271 88.5581 131.335 88.4541 131.378C88.3502 131.421 88.2386 131.444 88.126 131.444H80.9291C80.6066 131.474 80.2833 131.394 80.0117 131.218C79.7401 131.041 79.5361 130.778 79.4329 130.471L78.4828 127.927H70.1114L69.1763 130.501C69.0719 130.807 68.8677 131.07 68.5964 131.246C68.325 131.422 68.0023 131.503 67.68 131.474H60.4607C60.3464 131.476 60.2328 131.455 60.1272 131.411C60.0216 131.367 59.9262 131.302 59.8473 131.219ZM72.0939 120.342H76.4853L74.241 113.1L72.0939 120.342Z" fill="white"/>
<path d="M94.7945 131.159C94.6921 131.064 94.6111 130.948 94.557 130.819C94.5028 130.69 94.4767 130.551 94.4803 130.411V112.599H88.0165C87.8767 112.602 87.7377 112.576 87.6087 112.522C87.4798 112.468 87.3638 112.387 87.2684 112.285C87.1672 112.188 87.087 112.072 87.0329 111.943C86.9788 111.815 86.952 111.676 86.9542 111.536V105.267C86.9618 104.992 87.0745 104.73 87.2693 104.535C87.4642 104.34 87.7262 104.227 88.0016 104.22H110.812C110.951 104.218 111.09 104.244 111.219 104.299C111.347 104.353 111.464 104.433 111.56 104.534C111.662 104.629 111.743 104.745 111.797 104.874C111.851 105.003 111.878 105.142 111.874 105.282V111.551C111.87 111.83 111.758 112.096 111.561 112.293C111.364 112.49 111.098 112.602 110.819 112.606H104.363V130.426C104.366 130.566 104.34 130.705 104.286 130.834C104.232 130.963 104.151 131.079 104.049 131.174C103.952 131.276 103.836 131.356 103.708 131.41C103.579 131.464 103.44 131.491 103.301 131.489H95.5351C95.3954 131.489 95.2571 131.46 95.1295 131.404C95.0018 131.347 94.8876 131.264 94.7945 131.159Z" fill="white"/>
<path d="M119.065 130.734C117.384 130.148 115.896 129.113 114.763 127.741C113.835 126.554 113.311 125.102 113.267 123.596C113.265 123.483 113.286 123.371 113.33 123.267C113.374 123.162 113.439 123.068 113.521 122.991C113.598 122.91 113.691 122.845 113.794 122.802C113.897 122.758 114.008 122.736 114.12 122.736H121.518C121.816 122.726 122.113 122.772 122.394 122.871C122.681 123.01 122.948 123.189 123.187 123.402C124.015 124.022 125.033 124.336 126.067 124.292C126.787 124.316 127.505 124.218 128.192 124C128.723 123.806 128.992 123.544 128.992 123.207C128.992 122.736 128.64 122.385 127.937 122.138C126.637 121.774 125.308 121.524 123.965 121.39C117.277 120.507 113.93 117.654 113.925 112.831C113.904 111.159 114.429 109.525 115.421 108.178C116.499 106.754 117.949 105.657 119.611 105.006C121.576 104.218 123.68 103.834 125.798 103.876C128.001 103.832 130.189 104.255 132.216 105.118C133.865 105.805 135.323 106.881 136.466 108.253C137.355 109.287 137.9 110.574 138.022 111.933C138.022 112.046 137.999 112.158 137.955 112.262C137.912 112.366 137.848 112.46 137.767 112.539C137.694 112.616 137.606 112.678 137.508 112.72C137.41 112.762 137.305 112.785 137.199 112.786H129.426C129.133 112.798 128.841 112.752 128.566 112.652C128.31 112.526 128.075 112.362 127.87 112.165C127.29 111.687 126.556 111.437 125.805 111.462C124.563 111.462 123.935 111.829 123.935 112.554C123.935 112.943 124.242 113.302 124.855 113.527C125.957 113.897 127.1 114.133 128.259 114.23C130.399 114.447 132.5 114.95 134.506 115.726C135.895 116.258 137.09 117.2 137.932 118.427C138.687 119.718 139.058 121.197 139.002 122.691C139.028 124.453 138.435 126.169 137.326 127.539C136.103 129.003 134.508 130.111 132.71 130.748C130.587 131.532 128.337 131.915 126.074 131.878C123.687 131.941 121.308 131.553 119.065 130.734Z" fill="white"/>
<path d="M142.143 131.16C142.04 131.065 141.959 130.949 141.905 130.82C141.851 130.691 141.825 130.552 141.828 130.412V105.275C141.825 105.135 141.851 104.996 141.905 104.867C141.959 104.738 142.04 104.622 142.143 104.527C142.239 104.426 142.355 104.346 142.484 104.291C142.613 104.237 142.751 104.211 142.891 104.213H150.327C150.604 104.217 150.868 104.328 151.063 104.524C151.259 104.719 151.371 104.984 151.374 105.26V112.966L155.773 105.058C155.923 104.782 156.15 104.554 156.426 104.403C156.702 104.252 157.016 104.183 157.329 104.205H165.933C166.159 104.205 166.376 104.295 166.536 104.455C166.696 104.615 166.786 104.832 166.786 105.058C166.786 105.21 166.748 105.36 166.673 105.492L159.664 117.245L167.302 130.172C167.389 130.297 167.431 130.447 167.421 130.599C167.424 130.712 167.403 130.825 167.359 130.929C167.315 131.034 167.25 131.128 167.167 131.205C167.089 131.287 166.995 131.352 166.891 131.396C166.787 131.439 166.674 131.461 166.561 131.459H157.688C157.317 131.48 156.949 131.377 156.641 131.167C156.414 131.011 156.227 130.803 156.095 130.561L151.344 122.093V130.419C151.343 130.697 151.232 130.963 151.036 131.16C150.84 131.358 150.575 131.47 150.297 131.474H142.891C142.751 131.476 142.613 131.449 142.484 131.395C142.355 131.341 142.239 131.261 142.143 131.16Z" fill="white"/>
<path d="M169.954 131.16C169.852 131.065 169.771 130.949 169.717 130.82C169.663 130.691 169.636 130.552 169.64 130.412V105.275C169.636 105.135 169.663 104.996 169.717 104.868C169.771 104.739 169.852 104.623 169.954 104.527C170.05 104.426 170.167 104.346 170.295 104.292C170.424 104.238 170.563 104.211 170.702 104.213H178.64C178.779 104.211 178.918 104.238 179.047 104.292C179.176 104.346 179.292 104.426 179.388 104.527C179.49 104.623 179.571 104.739 179.625 104.868C179.68 104.996 179.706 105.135 179.702 105.275V130.419C179.706 130.559 179.68 130.698 179.625 130.827C179.571 130.956 179.49 131.072 179.388 131.168C179.292 131.269 179.176 131.349 179.047 131.403C178.918 131.457 178.779 131.484 178.64 131.482H170.695C170.556 131.482 170.418 131.454 170.291 131.398C170.164 131.343 170.049 131.262 169.954 131.16Z" fill="white"/>
<path d="M184.277 131.16C184.175 131.064 184.094 130.948 184.04 130.819C183.986 130.69 183.96 130.551 183.963 130.412V105.275C183.971 105 184.084 104.737 184.278 104.543C184.473 104.348 184.735 104.235 185.011 104.228H192.798C193.075 104.231 193.339 104.343 193.535 104.539C193.73 104.734 193.842 104.998 193.846 105.275V123.492H204.634C204.773 123.488 204.912 123.514 205.041 123.568C205.17 123.622 205.286 123.703 205.382 123.806C205.483 123.902 205.563 124.018 205.617 124.147C205.671 124.276 205.698 124.414 205.696 124.554V130.427C205.69 130.703 205.578 130.967 205.383 131.164C205.188 131.36 204.925 131.474 204.649 131.481H185.011C184.873 131.482 184.736 131.454 184.61 131.398C184.484 131.343 184.37 131.262 184.277 131.16Z" fill="white"/>
<path d="M208.635 131.16C208.535 131.063 208.456 130.946 208.404 130.818C208.351 130.689 208.325 130.551 208.328 130.412V105.275C208.332 104.998 208.444 104.734 208.639 104.539C208.835 104.343 209.099 104.231 209.376 104.228H217.164C217.44 104.231 217.704 104.343 217.9 104.539C218.096 104.734 218.207 104.998 218.211 105.275V123.492H228.991C229.27 123.495 229.536 123.608 229.733 123.805C229.93 124.002 230.042 124.268 230.046 124.546V130.419C230.05 130.559 230.024 130.698 229.969 130.827C229.915 130.956 229.834 131.072 229.732 131.167C229.636 131.268 229.52 131.349 229.391 131.403C229.262 131.457 229.123 131.484 228.984 131.481H209.376C209.237 131.482 209.099 131.453 208.972 131.398C208.844 131.342 208.73 131.261 208.635 131.16Z" fill="white"/>
<path d="M232.995 131.16C232.893 131.065 232.812 130.949 232.758 130.82C232.704 130.691 232.677 130.552 232.681 130.412V105.275C232.677 105.135 232.704 104.996 232.758 104.868C232.812 104.739 232.893 104.623 232.995 104.527C233.091 104.426 233.208 104.346 233.336 104.292C233.465 104.238 233.604 104.211 233.743 104.213H253.711C253.85 104.211 253.989 104.238 254.117 104.292C254.246 104.346 254.362 104.426 254.459 104.527C254.56 104.623 254.64 104.739 254.693 104.868C254.746 104.997 254.77 105.136 254.765 105.275V110.767C254.765 111.044 254.655 111.311 254.459 111.507C254.262 111.704 253.996 111.814 253.718 111.814H242.025V114.268H252.858C252.997 114.264 253.137 114.29 253.265 114.344C253.394 114.399 253.51 114.48 253.606 114.582C253.707 114.678 253.787 114.794 253.841 114.923C253.895 115.052 253.922 115.19 253.92 115.33V120.387C253.922 120.527 253.895 120.665 253.841 120.794C253.787 120.923 253.707 121.039 253.606 121.135C253.51 121.238 253.394 121.319 253.265 121.373C253.137 121.427 252.997 121.453 252.858 121.45H242.025V123.896H253.995C254.135 123.892 254.274 123.918 254.403 123.973C254.532 124.027 254.648 124.108 254.743 124.21C254.844 124.306 254.924 124.422 254.978 124.551C255.033 124.68 255.059 124.819 255.057 124.958V130.442C255.051 130.719 254.94 130.983 254.745 131.179C254.55 131.375 254.286 131.489 254.01 131.497H233.736C233.596 131.495 233.458 131.464 233.33 131.406C233.203 131.348 233.089 131.265 232.995 131.16Z" fill="white"/>
<path d="M264.996 131.159C264.893 131.064 264.812 130.948 264.758 130.819C264.704 130.69 264.678 130.551 264.681 130.411V112.599H258.218C258.078 112.602 257.939 112.576 257.81 112.522C257.681 112.468 257.565 112.387 257.47 112.285C257.368 112.188 257.288 112.072 257.234 111.943C257.18 111.815 257.153 111.676 257.155 111.536V105.267C257.163 104.992 257.276 104.73 257.471 104.535C257.665 104.34 257.927 104.227 258.203 104.22H281.013C281.152 104.218 281.291 104.244 281.42 104.299C281.549 104.353 281.665 104.433 281.761 104.534C281.863 104.629 281.944 104.745 281.998 104.874C282.053 105.003 282.079 105.142 282.075 105.282V111.551C282.071 111.83 281.959 112.096 281.762 112.293C281.565 112.49 281.299 112.602 281.02 112.606H274.557V130.426C274.56 130.566 274.534 130.705 274.48 130.834C274.426 130.963 274.345 131.079 274.242 131.174C274.146 131.276 274.03 131.356 273.901 131.41C273.772 131.464 273.634 131.491 273.494 131.489H265.714C265.578 131.486 265.444 131.456 265.32 131.399C265.197 131.342 265.086 131.261 264.996 131.159Z" fill="white"/>
</svg>
